<?xml version="1.0" encoding="UTF-8"?>
<svg id="Layer_1" xmlns="http://www.w3.org/2000/svg" xmlns:xlink="http://www.w3.org/1999/xlink" viewBox="0 0 250 250">
  <defs>
    <style>
      .cls-1 {
        fill: none;
        stroke: #b08968;
        stroke-miterlimit: 10;
        stroke-width: 4px;
      }

      .cls-2 {
        fill: url(#linear-gradient-2);
      }

      .cls-3 {
        fill: url(#linear-gradient-3);
      }

      .cls-4 {
        fill: url(#linear-gradient);
      }
    </style>
    <linearGradient id="linear-gradient" x1="19.79" y1="109.36" x2="182.78" y2="109.36" gradientUnits="userSpaceOnUse">
      <stop offset="0" stop-color="#7f5639"/>
      <stop offset=".03" stop-color="#81583a"/>
      <stop offset=".66" stop-color="#a37b5b"/>
      <stop offset="1" stop-color="#b08968"/>
    </linearGradient>
    <linearGradient id="linear-gradient-2" x1="40.61" y1="210.88" x2="136.32" y2="210.88" gradientUnits="userSpaceOnUse">
      <stop offset="0" stop-color="#7f5639"/>
      <stop offset=".03" stop-color="#81583a"/>
      <stop offset=".66" stop-color="#a37b5b"/>
      <stop offset="1" stop-color="#b08968"/>
    </linearGradient>
    <linearGradient id="linear-gradient-3" x1="134.58" y1="212.54" x2="209.67" y2="212.54" xlink:href="#linear-gradient-2"/>
  </defs>
  <path class="cls-4" d="M130.7,60.58c0-10.93,8.41-16.8,20.54-16.8,14.28,0,18,6.27,18,14.77,0,3.04,2.54,5.67,5.48,5.67s5.48-2.63,5.48-5.67c0-10.93-12.72-17.2-28.37-17.2-18.98,0-27.78,11.74-27.78,24.69,0,38.46,72.39,30.76,72.39,70.64,0,22.87-13.3,38.25-40.3,38.25-43.24,0-45.99-53.03-72.6-53.03-5.09,0-10.37,1.62-15.46,5.67l27.39-73.67c.98,1.62,1.96,3.85,2.93,6.27l27.98,67.8c3.22,7.84,4.06,12.08-.34,14.17-.23.11-.31.4-.17.62.08.12.2.19.34.19h22.26c.13,0,.26-.07.33-.18.14-.22.05-.51-.18-.61-4.82-2.08-7.87-6.14-11.29-14.39l-32.13-77.63c-1.4-3.37-4.6-5.56-8.15-5.56h-9.2c-.13,0-.26.07-.34.19-.14.22-.06.51.17.61,2.69,1.21,4.55,2.99,6.4,5.68l-40.5,108.28c-3.03,8.04-5.88,11.9-10.51,13.98-.23.1-.31.4-.17.61.07.12.2.19.34.19h13.85c.14,0,.26-.07.34-.19.14-.22.06-.51-.17-.62-4.43-2.07-4.16-5.91-1.32-13.36l10.37-27.93c5.48-5.26,10.96-7.69,16.24-7.69,26.61,0,28.38,53.03,73.58,53.03,29.54,0,49.7-19.03,49.7-41.9,0-49.18-75.13-40.28-75.13-74.89Z"/>
  <g>
    <path class="cls-2" d="M136.29,214.31l.03-.09c0-.14-.1-.2-.31-.2-.09.02-.2.09-.34.23-.61,1.13-1.73,1.89-3.34,2.28-.34.06-.65.09-.92.09-.98,0-1.57-.51-1.77-1.52,0-.45.02-.78.07-.98.05-.2.07-.46.07-.76-.02-.23-.27-.41-.75-.57l.34-.05c.25,0,.48.05.68.14l.31.05.03-.07c0-.62-.46-.93-1.36-.93-.8,0-1.74.34-2.83,1.02-1.54.96-2.64,2.13-3.31,3.51-1.8,1.42-3,2.13-3.6,2.13-.48,0-.76-.21-.82-.62-.07-.41-.1-.97-.1-1.67,0-1-.1-1.79-.31-2.39-.27-.45-.62-.67-1.03-.67h-.07c-.73.11-1.54.56-2.41,1.37l-.58.45.89-1.91c.14-.36.21-.65.21-.86,0-.32-.09-.55-.26-.7-.17-.15-.33-.22-.46-.22-.55,0-1.36.98-2.44,2.93-.36.62-.68,1.21-.96,1.75-.23.3-.54.69-.93,1.17-.96,1.18-1.96,1.83-2.99,1.96-.82-.04-1.24-.82-1.24-2.32,0-1.42.42-2.77,1.27-4.04.25-.38.38-.72.38-1.02,0-.42-.25-.64-.76-.64-.34,0-.65.21-.93.64-.16.34-.49.92-1,1.73-.5.82-.97,1.6-1.41,2.34-1.9,2.67-3.36,4.01-4.36,4.01-.55,0-.82-.27-.82-.8,0-1.85.52-3.77,1.55-5.76.37-.66.55-1.12.55-1.4,0-.3-.15-.45-.45-.45-.41,0-.82.24-1.24.73-.75.9-1.34,1.86-1.75,2.88-1.18.53-2.96,1.76-5.33,3.67h-.07c0-.38-.82-1.01-2.47-1.88-1.53-.71-2.53-1.3-2.99-1.76-.05-.11-.12-.19-.21-.25-.06-.1-.1-.2-.1-.28,0-.47.3-1.14.89-2.01,1.74-1.95,3.06-2.93,3.95-2.93.5,0,.76.34.76,1.02,0,.49-.07.89-.21,1.21-.73,1.29-1.1,1.98-1.1,2.07,0,.3.08.46.24.49.16.03.26.05.31.05.16,0,.3-.04.41-.13.85-.51,1.27-1.68,1.27-3.5-.14-1.15-.72-1.72-1.75-1.72h-.38c-.44,0-1.15.34-2.13,1.02-2.2,1.8-3.33,3.25-3.4,4.33,0,.15.02.31.06.47-2.97.81-6.43,1.66-10.37,2.56h-.03c.32-1.55.79-3.48,1.41-5.79.53-2.16,1.87-6.72,4.02-13.66,1.21-3.84,1.82-6.62,1.82-8.34,0-1.59-.41-2.39-1.24-2.39h-.21c-1.35,0-3.4,2.29-6.15,6.88-1.63,2.46-3.57,5.98-5.84,10.57-3.18,6.81-5.04,10.75-5.57,11.81-5.02-1.91-9.46-2.86-13.33-2.86h-.82c-1.21,0-2.51.16-3.88.48-2.5.89-3.75,2.04-3.75,3.44v.35c0,.21.06.47.17.76,1.1,2.5,4.26,3.76,9.49,3.76,2.54,0,5.78-.31,9.73-.92h.07c-2.54,5.6-3.81,9.1-3.81,10.5v.06c0,.57.23.86.69.86.32,0,.7-.35,1.13-1.05.69-1.51,2.11-5.09,4.26-10.76l4.43-.89c1.1,1.17,1.88,2.3,2.34,3.41.76,2.29,1.13,3.78,1.13,4.46-.16,2.02-.24,3.66-.24,4.93.11.89.46,1.34,1.03,1.34h.21c.69,0,1.12-.56,1.31-1.69,0-1.36-.01-3.17-.03-5.44.02-.57.06-1.07.1-1.5.6-3.91,1-6.23,1.2-6.97,4.28-.91,7.78-1.74,10.48-2.48.4-.06.72-.14.99-.22.66.6,1.44,1.07,2.35,1.43,1.49.76,2.35,1.47,2.58,2.13-5.57,4.48-8.35,7.65-8.35,9.52,0,.57.48.86,1.44.86,1.92,0,4.02-1.37,6.29-4.11,1.58-2.19,2.37-4.04,2.37-5.57,0-.36-.07-.71-.21-1.05,2.43-1.7,3.71-2.55,3.85-2.55.29-.19.56-.36.8-.52-.24.89-.35,1.83-.35,2.81,0,.62.09,1.15.27,1.59.41.66.89.99,1.44.99.73,0,1.52-.35,2.37-1.05,1.28-1.1,2.34-2.28,3.16-3.53l.82-1.15c0,1.82.39,3.01,1.17,3.57.46.34.9.51,1.34.51.69,0,1.53-.41,2.54-1.24.29-.26.57-.51.84-.76-.35.88-.53,1.58-.53,2.1,0,.15.03.29.1.41.07.13.19.23.36.32.17.08.3.13.4.13.46,0,.89-.29,1.31-.86,1.7-2.82,3.45-4.69,5.26-5.6l-.07.92c-.05.57-.07,1.19-.07,1.85,0,.42.06.83.17,1.21.34.85.88,1.27,1.62,1.27.21,0,.45-.04.72-.13,1.1-.32,2.21-.92,3.33-1.81.06-.05.11-.09.17-.14.15.53.57.8,1.26.8.55,0,1.07-.24,1.59-.71.51-.47,1-1,1.47-1.58.47-.58.87-.98,1.21-1.21,0,1.09.35,1.75,1.04,1.99.69.24,1.28.36,1.76.36,1.36,0,2.61-.47,3.75-1.42.61-.53,1.09-1.06,1.43-1.61ZM60.65,220.31c-3.18.36-6.16.54-8.94.54h-.89c-2.2,0-4.14-.13-5.81-.38-2.08-.4-3.13-1.26-3.13-2.58,0-1.85,2.06-2.77,6.19-2.77s8.79.85,13.78,2.55h.03l-1.24,2.64ZM65.7,219.48c-.66.15-1.6.31-2.82.48,0-.11.21-.66.62-1.66.23,0,.96.37,2.2,1.11v.06ZM70.79,224.57h-.03c-.53-1.42-1.5-2.92-2.92-4.49,1.4-.32,2.74-.6,4.02-.86h.07c-.53,2.23-.91,4.01-1.13,5.35ZM72.3,217.89c-.82.21-2.66.62-5.5,1.21-.21-.17-.31-.27-.31-.29-.82-.62-1.67-1.11-2.54-1.5v-.03l.76-2.01c3.53-8.4,6.71-14.93,9.55-19.58,2.86-4.37,4.65-6.56,5.36-6.56,0,1.23-.88,4.72-2.65,10.47-2.5,9.23-4.06,15.32-4.67,18.27ZM87.45,227.18c-1.56,1.49-2.99,2.23-4.3,2.23-.37-.04-.55-.19-.55-.45,0-.79,1.18-2.38,3.54-4.77,2.57-2.53,4.01-3.79,4.33-3.79,0,2.08-1.01,4.34-3.02,6.78ZM126.84,214.99c-.96,1.15-1.58,1.79-1.88,1.94.11-.54.53-1.22,1.26-2.05.73-.82,1.42-1.39,2.08-1.71-.09.17-.58.77-1.47,1.81Z"/>
    <path class="cls-3" d="M209.36,214.99c-.18,0-.38.09-.58.25-2.64,2.23-4.33,3.34-5.09,3.34-.48,0-.76-.21-.82-.62-.07-.41-.1-.97-.1-1.67,0-1-.1-1.79-.31-2.39-.27-.45-.62-.67-1.03-.67h-.07c-.73.11-1.54.56-2.41,1.37l-.58.45.89-1.91c.14-.36.21-.65.21-.86,0-.32-.09-.55-.26-.7-.17-.15-.33-.22-.46-.22-.55,0-1.36.98-2.44,2.93-.16.27-.3.53-.45.79-.06.02-.11.04-.17.07-.69.32-1.61.56-2.77.73-1.16.17-2.04.25-2.66.25.5-.93.76-1.91.76-2.93,0-1.1-.29-1.79-.86-2.07-.37-.15-.71-.22-1.03-.22-.46,0-.94.11-1.44.32-1.58.66-2.6,1.56-3.06,2.71-.16.47-.24.84-.24,1.11,0,.08,0,.17.02.25-.33.48-.57.84-.7,1.09-3.53,5.43-6.08,8.15-7.66,8.15-1.37,0-2.06-1.25-2.06-3.76,0-1.08.17-2.74.52-4.97.21-.95.53-1.64.96-2.07.55-.51,1.62-1.92,3.2-4.23,3.25-4.88,5.36-8.49,6.32-10.82.43-1.1.65-1.86.65-2.26,0-.55-.26-.83-.79-.83-1.21,0-2.62,1.14-4.23,3.41-2.8,3.97-4.96,8.53-6.5,13.69l-.03.06c0,.19-.09.41-.27.67-.02.08-.1.18-.22.27-.13.1-.19.18-.19.24,0,.36.02.57.07.64,0,.45-.03.77-.1.99v.16c-.04.15-.07.29-.1.43-.66,1.06-1.62,1.81-2.89,2.24-.34.08-.65.13-.93.13-.99,0-1.58-.71-1.79-2.13,0-.64.02-1.1.07-1.38.05-.29.07-.64.07-1.07-.02-.32-.27-.58-.76-.8l.34-.06c.25,0,.48.06.69.19l.31.06.03-.1c0-.87-.46-1.31-1.37-1.31-.8,0-1.75.48-2.85,1.43-.56.49-1.05,1.01-1.5,1.57-1,.08-2.75.79-5.24,2.12-.82.45-1.41.71-1.75.8-.85-2.21-4.49-4.03-10.93-5.48-.32-.06-.6-.13-.84-.19-.24-.06-.48-.12-.7-.16-.96-.19-1.9-.47-2.82-.83-1.37-.55-2.06-1.4-2.06-2.55,0-1.34,1.08-3.25,3.23-5.73l.45-.54c1.08-1.36,2.68-3.1,4.81-5.22,5.68-5.58,9.98-8.37,12.89-8.37.89,0,1.34.59,1.34,1.78v.19c0,1.15-.21,2.49-.62,4.04-.87,3.12-1.82,5.65-2.85,7.58l-1.58,2.96c-1.08,2.02-1.62,3.12-1.62,3.31,0,.34.23.59.69.76l.1.1c1.33-.42,3.24-4.29,5.74-11.59,1.08-3.16,1.62-5.57,1.62-7.23,0-.49-.03-1.03-.1-1.64-.07-.6-.28-1.13-.64-1.59-.36-.46-.97-.68-1.84-.68-2.5,0-5.75,1.72-9.76,5.16-1.56,1.34-2.94,2.56-4.16,3.66l-2.3,2.29c-1.31,1.25-2.76,2.98-4.36,5.19-1.6,2.21-2.41,4.14-2.41,5.79.21,1.44,1.01,2.47,2.41,3.07,1.4.6,2.89,1.05,4.47,1.32l2.68.67c1.65.38,3.23.9,4.74,1.56,1.51.66,2.68,1.67,3.51,3.02-2.41,1.27-5.22,3.15-8.44,5.62-3.22,2.47-5.8,4.6-7.75,6.38l-.1.13c-.82.7-1.68,1.54-2.56,2.53-.88.99-1.32,2.02-1.32,3.1,0,.64.33,1.13,1,1.48.66.35,1.33.53,1.99.53h.17c1.33-.11,2.71-.52,4.16-1.24,2.06-1.15,4.16-2.71,6.29-4.68,1.65-1.42,3.39-3.27,5.22-5.54.76-.95,1.45-1.98,2.08-3.07.63-1.09.95-2.37.95-3.84,0-.32-.02-.54-.07-.67-.05-.13-.09-.31-.14-.54,2.82-1.36,4.7-2.25,5.65-2.65-.46.75-.83,1.56-1.11,2.42-.07.23-.1.5-.1.8,0,1.25.45,1.88,1.34,1.88.55,0,1.08-.33,1.6-1,.52-.67,1.01-1.41,1.48-2.23.47-.82.88-1.38,1.22-1.7,0,1.53.35,2.46,1.05,2.8.7.34,1.29.51,1.77.51,1.37,0,2.63-.67,3.78-2.01.02-.03.04-.06.07-.08-.23,1.21-.34,2.33-.34,3.33,0,3.33,1.13,5,3.4,5,1.05,0,2.23-.71,3.54-2.13,1.72-2.19,2.6-3.33,2.65-3.44.92-1.34,1.74-2.67,2.47-4.01l.02-.04c.03.08.05.16.05.23-.11.3-.18.49-.21.57-.02.09-.06.16-.1.22-.23.62-.34,1.25-.34,1.91,0,1.02.46,1.53,1.37,1.53.76,0,1.46-.33,2.11-1,.65-.67,1.23-1.35,1.74-2.05.16-.17.47-.3.93-.38,1.37-.21,2.41-.39,3.09-.54.78-.17,1.42-.32,1.92-.46-.91,1.79-1.37,3.09-1.37,3.93,0,.15.03.29.1.41.07.13.19.23.36.32.17.08.3.13.4.13.46,0,.89-.29,1.31-.86,1.7-2.82,3.45-4.69,5.26-5.6l-.07.92c-.05.57-.07,1.19-.07,1.85,0,.42.06.83.17,1.21.34.85.88,1.27,1.62,1.27.21,0,.45-.04.72-.13,1.1-.32,2.21-.92,3.33-1.81,1.76-1.38,2.65-2.27,2.65-2.67v-.06c-.05-.06-.15-.1-.31-.1ZM176.89,208.34c.55-1.34,1.04-2.42,1.48-3.25.05-.11.09-.22.14-.35.25-.53.55-1.06.89-1.58.34-.52.61-.95.79-1.29,1.15-1.87,2.27-3.36,3.37-4.49.39-.38.72-.62,1-.7,0,1.25-1.13,3.62-3.4,7.1-.21.32-.42.67-.65,1.07-.23.39-.51.82-.84,1.27-.33.46-.66.93-.98,1.42-.85,1.32-1.78,2.55-2.78,3.69.05-.42.38-1.39,1-2.9ZM154.47,222.55c-.33.73-.81,1.52-1.43,2.37-.32.53-.66,1.03-1.03,1.5l-.34.38c-4.35,5.28-8.4,8.59-12.13,9.93-.69.21-1.34.32-1.96.32-1.12,0-1.68-.42-1.68-1.27,0-1.27,2.35-3.84,7.04-7.7,2.77-2.42,5.85-4.71,9.24-6.88l.65-.41c.69-.45,1.4-.85,2.13-1.21,0,1.25-.17,2.24-.5,2.98ZM164.83,216.23c-.96,1.61-1.59,2.53-1.89,2.74.11-.76.54-1.72,1.27-2.88.73-1.16,1.43-1.96,2.1-2.4-.09.23-.58,1.08-1.48,2.55ZM187.23,218.49c-.48.4-.86.6-1.13.6-.3,0-.45-.24-.45-.73s.09-.93.28-1.4c.78.21,1.58.32,2.41.32-.25.4-.62.81-1.1,1.21ZM189.29,216.04l-1.27.03c-.64,0-1.21-.07-1.72-.22.5-1.04.95-1.56,1.34-1.56.09,0,.21-.05.34-.16.27-.34.41-.63.41-.86,0-.25-.15-.38-.45-.38-.41,0-.93.37-1.55,1.11l-.82.99c.02-.74.33-1.4.91-1.97.58-.57,1.07-.92,1.44-1.03.38-.12.69-.18.95-.18.82,0,1.26.36,1.31,1.08,0,1.02-.3,2.07-.89,3.15Z"/>
  </g>
  <path class="cls-1" d="M35.96,217.98h-18.47c-5.94,0-10.76-4.46-10.76-9.97V36.53c0-5.5,4.82-9.97,10.76-9.97h215.29c5.94,0,10.76,4.46,10.76,9.97v171.48c0,5.5-4.82,9.97-10.76,9.97h-19.21"/>
</svg>