<?xml version="1.0" encoding="UTF-8"?>
<svg id="Layer_1" xmlns="http://www.w3.org/2000/svg" xmlns:xlink="http://www.w3.org/1999/xlink" viewBox="0 0 250 250">
  <defs>
    <style>
      .cls-1 {
        filter: url(#drop-shadow-1);
      }

      .cls-1, .cls-2, .cls-3, .cls-4 {
        fill: #fff;
      }

      .cls-5 {
        fill: none;
        stroke: #fff;
        stroke-miterlimit: 10;
        stroke-width: 3px;
      }

      .cls-2 {
        font-size: 22.51px;
      }

      .cls-2, .cls-3, .cls-4 {
        font-family: Priestacy, Priestacy;
      }

      .cls-3 {
        font-size: 21.8px;
      }

      .cls-4 {
        font-size: 24.63px;
      }
    </style>
    <filter id="drop-shadow-1" x="52.29" y="56.06" width="170.88" height="151.92" filterUnits="userSpaceOnUse">
      <feOffset dx="13" dy="13"/>
      <feGaussianBlur result="blur" stdDeviation="9"/>
      <feFlood flood-color="#231f20" flood-opacity=".4"/>
      <feComposite in2="blur" operator="in"/>
      <feComposite in="SourceGraphic"/>
    </filter>
  </defs>
  <path class="cls-1" d="M129.3,84.07c0-7.83,6.03-12.04,14.73-12.04,10.24,0,12.9,4.5,12.9,10.59,0,2.18,1.82,4.06,3.93,4.06s3.93-1.89,3.93-4.06c0-7.83-9.12-12.33-20.33-12.33-13.6,0-19.91,8.41-19.91,17.7,0,27.56,51.89,22.05,51.89,50.63,0,16.39-9.54,27.42-28.89,27.42-30.99,0-32.97-38.01-52.04-38.01-3.65,0-7.43,1.16-11.08,4.06l19.63-52.81c.7,1.16,1.4,2.76,2.1,4.5l20.05,48.6c2.31,5.62,2.91,8.66-.24,10.16-.16.08-.22.29-.12.44.05.08.15.13.24.13h15.96c.1,0,.19-.05.24-.13.1-.15.04-.37-.13-.44-3.46-1.49-5.64-4.4-8.09-10.31l-23.03-55.64c-1-2.42-3.3-3.98-5.84-3.98h-6.59c-.1,0-.19.05-.24.13-.1.15-.04.37.12.44,1.93.87,3.26,2.14,4.59,4.07l-29.03,77.61c-2.17,5.77-4.22,8.53-7.53,10.02-.16.07-.22.28-.12.44.05.08.14.13.24.13h9.93c.1,0,.19-.05.24-.13.1-.16.04-.36-.12-.44-3.18-1.49-2.98-4.24-.94-9.58l7.43-20.02c3.93-3.77,7.85-5.51,11.64-5.51,19.07,0,20.35,38.01,52.74,38.01,21.18,0,35.62-13.64,35.62-30.03,0-35.25-53.85-28.87-53.85-53.68Z"/>
  <circle class="cls-5" cx="125" cy="125" r="116.41"/>
  <circle class="cls-5" cx="125" cy="125" r="76.96"/>
  <text class="cls-3" transform="translate(57.64 59.29) rotate(-37.32)"><tspan x="0" y="0">A</tspan></text>
  <text class="cls-3" transform="translate(81.08 43.02) rotate(-25.34)"><tspan x="0" y="0">s</tspan></text>
  <text class="cls-3" transform="translate(91.99 38.12) rotate(-17.55)"><tspan x="0" y="0">u</tspan></text>
  <text class="cls-3" transform="translate(104.97 34.36) rotate(-9.64)"><tspan x="0" y="0">n</tspan></text>
  <text class="cls-3" transform="translate(117.42 32.61) rotate(-3.42)"><tspan x="0" y="0">a</tspan></text>
  <text class="cls-3" transform="translate(128.09 32.2) rotate(5)"><tspan x="0" y="0"> </tspan></text>
  <text class="cls-3" transform="translate(142.54 33.48) rotate(15.85)"><tspan x="0" y="0">S</tspan></text>
  <text class="cls-3" transform="translate(163.27 40.22) rotate(25.84)"><tspan x="0" y="0">a</tspan></text>
  <text class="cls-3" transform="translate(173.43 45.45) rotate(32.82)"><tspan x="0" y="0">l</tspan></text>
  <text class="cls-3" transform="translate(182.54 51.6) rotate(39.58)"><tspan x="0" y="0">o</tspan></text>
  <text class="cls-3" transform="translate(191.24 59.1) rotate(46.93)"><tspan x="0" y="0">n</tspan></text>
  <text class="cls-2" transform="translate(55.47 195.6) rotate(42.38)"><tspan x="0" y="0">E</tspan></text>
  <text class="cls-2" transform="translate(71.1 208.78) rotate(32.59)"><tspan x="0" y="0">s</tspan></text>
  <text class="cls-2" transform="translate(83.1 215.94) rotate(24.61)"><tspan x="0" y="0">t</tspan></text>
  <text class="cls-2" transform="translate(95.85 221.39) rotate(15.49)"><tspan x="0" y="0"> </tspan></text>
  <text class="cls-4" transform="translate(113.11 225.55) rotate(5.3)"><tspan x="0" y="0">-</tspan></text>
  <text class="cls-4" transform="translate(130.92 226.62) rotate(-5.33)"><tspan x="0" y="0"> </tspan></text>
  <text class="cls-4" transform="translate(150.24 224.12) rotate(-16.73)"><tspan x="0" y="0">2</tspan></text>
  <text class="cls-4" transform="translate(167.31 218.32) rotate(-25.47)"><tspan x="0" y="0">0</tspan></text>
  <text class="cls-4" transform="translate(178.56 212.51) rotate(-32.27)"><tspan x="0" y="0">1</tspan></text>
  <text class="cls-4" transform="translate(187.46 206.57) rotate(-38.96)"><tspan x="0" y="0">9</tspan></text>
</svg>