<?xml version="1.0" encoding="UTF-8"?>
<svg id="a" data-name="Layer 1" xmlns="http://www.w3.org/2000/svg" width="250" height="250" xmlns:xlink="http://www.w3.org/1999/xlink" viewBox="0 0 250 250">
  <defs>
    <linearGradient id="b" x1="73.25" y1="109.82" x2="173.48" y2="109.82" gradientUnits="userSpaceOnUse">
      <stop offset=".32" stop-color="#40342c"/>
      <stop offset=".39" stop-color="#564539"/>
      <stop offset=".44" stop-color="#705948"/>
      <stop offset=".73" stop-color="#7d634f"/>
    </linearGradient>
    <linearGradient id="c" x1="85.98" y1="109.82" x2="215.76" y2="109.82" gradientUnits="userSpaceOnUse">
      <stop offset="0" stop-color="#40342c"/>
      <stop offset=".22" stop-color="#574538"/>
      <stop offset=".68" stop-color="#927257"/>
      <stop offset=".9" stop-color="#b08968"/>
    </linearGradient>
    <linearGradient id="d" x1="46.32" y1="213.44" x2="89.27" y2="213.44" gradientUnits="userSpaceOnUse">
      <stop offset="0" stop-color="#40342c"/>
      <stop offset=".1" stop-color="#574538"/>
      <stop offset=".3" stop-color="#927257"/>
      <stop offset=".4" stop-color="#b08968"/>
      <stop offset="1" stop-color="#b08968"/>
    </linearGradient>
    <linearGradient id="e" x1="85.31" y1="222.34" x2="100.61" y2="222.34" xlink:href="#d"/>
    <linearGradient id="f" x1="98.73" y1="219.08" x2="114.06" y2="219.08" xlink:href="#d"/>
    <linearGradient id="g" x1="111.43" y1="218.83" x2="126.34" y2="218.83" xlink:href="#d"/>
    <linearGradient id="h" x1="123.94" y1="217.86" x2="136.81" y2="217.86" xlink:href="#d"/>
    <linearGradient id="i" x1="135.16" y1="215.13" x2="162.78" y2="215.13" xlink:href="#d"/>
    <linearGradient id="j" x1="159.82" y1="219.22" x2="172.79" y2="219.22" xlink:href="#d"/>
    <linearGradient id="k" x1="171.13" y1="213.25" x2="183.41" y2="213.25" xlink:href="#d"/>
    <linearGradient id="l" x1="181.98" y1="218.43" x2="193.87" y2="218.43" xlink:href="#d"/>
    <linearGradient id="m" x1="191.24" y1="218.83" x2="206.15" y2="218.83" xlink:href="#d"/>
  </defs>
  <g>
    <path d="m85.98,125.11c-4.99,0-10.17,2.48-15.35,7.85l-9.8,28.51c-2.69,7.6-2.95,11.52,1.24,13.64.22.11.3.41.16.63h0c-.07.12-.19.19-.32.19h-13.09c-.13,0-.25-.07-.32-.19h0c-.13-.22-.05-.52.16-.63,4.37-2.12,7.07-6.05,9.94-14.26l38.29-110.51c-1.75-2.74-3.51-4.56-6.05-5.79-.22-.11-.3-.41-.16-.63h0c.07-.12.19-.19.32-.19h8.7c3.35,0,6.38,2.23,7.7,5.67l30.38,79.23c3.23,8.42,6.11,12.56,10.67,14.68.22.1.3.4.17.62h0c-.07.12-.19.19-.31.19h-21.05c-.13,0-.25-.07-.32-.19h0c-.13-.22-.05-.52.16-.63,4.16-2.14,3.37-6.46.32-14.47l-26.45-69.2c-.92-2.48-1.85-4.75-2.77-6.4l-25.89,75.19c4.81-4.13,9.8-5.78,14.61-5.78" fill="url(#b)" stroke-width="0"/>
    <path d="m86.9,122.63c25.16,0,27.76,54.12,68.64,54.12,25.53,0,38.1-15.7,38.1-39.04,0-40.69-68.44-32.84-68.44-72.09,0-13.22,8.32-25.2,26.26-25.2,14.8,0,26.82,6.4,26.82,17.56,0,3.1-2.4,5.78-5.18,5.78s-5.18-2.69-5.18-5.78c0-8.68-3.51-15.08-17.02-15.08-11.47,0-19.42,5.99-19.42,17.15,0,35.32,71.03,26.23,71.03,76.43,0,23.34-19.05,42.76-46.98,42.76-42.73,0-44.41-54.12-69.56-54.12" fill="url(#c)" stroke-width="0"/>
  </g>
  <g>
    <path d="m83.52,189.4h.19c.78,0,1.17.81,1.17,2.44,0,1.75-.57,4.59-1.72,8.51-2.04,7.08-3.3,11.73-3.8,13.94-.58,2.36-1.03,4.33-1.33,5.91h.03c4.05-1,7.56-1.94,10.53-2.83.37,0,.6.24.68.71v.13c0,.35-.55.62-1.66.81-2.56.76-5.86,1.6-9.91,2.53-.19.76-.57,3.13-1.14,7.12-.04.43-.08.94-.1,1.53.02,2.32.03,4.17.03,5.56-.17,1.15-.58,1.72-1.23,1.72h-.19c-.54,0-.87-.45-.97-1.36,0-1.3.08-2.98.23-5.04,0-.69-.36-2.21-1.07-4.55-.43-1.13-1.17-2.29-2.21-3.48l-4.19.91c-2.04,5.78-3.38,9.44-4.03,10.98-.41.71-.77,1.07-1.07,1.07-.43,0-.65-.29-.65-.88v-.07c0-1.43,1.2-5,3.61-10.72h-.06c-3.73.63-6.79.94-9.19.94-4.94,0-7.93-1.28-8.97-3.83-.11-.3-.16-.56-.16-.78v-.36c0-1.43,1.18-2.6,3.54-3.51,1.3-.32,2.52-.49,3.67-.49h.78c3.66,0,7.86.97,12.61,2.92.5-1.08,2.25-5.1,5.26-12.05,2.14-4.68,3.99-8.27,5.52-10.79,2.6-4.68,4.54-7.02,5.82-7.02Zm-36,31.19c0,1.34.99,2.22,2.96,2.63,1.58.26,3.41.39,5.49.39h.84c2.62,0,5.44-.18,8.45-.55l1.17-2.7h-.03c-4.72-1.73-9.06-2.6-13.03-2.6s-5.85.94-5.85,2.83Zm20.44.42c-.39,1.02-.58,1.58-.58,1.69,1.15-.17,2.04-.34,2.66-.49v-.07c-1.17-.76-1.86-1.14-2.08-1.14Zm.42-1.01c.82.39,1.62.9,2.4,1.53,0,.02.1.12.29.29,2.69-.61,4.42-1.02,5.2-1.23.58-3.01,2.06-9.23,4.42-18.65,1.67-5.87,2.5-9.43,2.5-10.69-.67,0-2.36,2.23-5.07,6.69-2.69,4.74-5.7,11.4-9.03,19.98l-.71,2.05v.03Zm3.67,2.83c1.34,1.6,2.26,3.13,2.76,4.58h.03c.22-1.36.57-3.18,1.07-5.46h-.07c-1.21.26-2.48.55-3.8.88Z" fill="url(#d)" stroke-width="0"/>
    <path d="m86.68,233.03c-.91,0-1.36-.29-1.36-.88,0-1.91,2.63-5.14,7.89-9.71-.22-.67-1.03-1.4-2.44-2.18-1.02-.43-1.87-1.04-2.57-1.82-.26-.48-.39-.92-.39-1.33.06-1.1,1.14-2.58,3.22-4.42.93-.69,1.6-1.04,2.01-1.04h.36c.97,0,1.53.58,1.66,1.75,0,1.86-.4,3.05-1.2,3.57-.11.09-.24.13-.39.13-.04,0-.14-.02-.29-.05-.15-.03-.23-.2-.23-.5,0-.09.35-.79,1.04-2.11.13-.32.19-.74.19-1.23,0-.69-.24-1.04-.71-1.04-.84,0-2.09,1-3.74,2.99-.56.89-.84,1.57-.84,2.05,0,.52,1.04,1.3,3.12,2.34,1.56.89,2.34,1.53,2.34,1.92h.06c3.1-2.71,5.12-4.06,6.08-4.06.04,0,.09.05.13.16v.16c-.06.15-.83.74-2.31,1.75-.13,0-1.34.87-3.64,2.6.13.35.19.7.19,1.07,0,1.56-.75,3.45-2.24,5.69-2.14,2.79-4.13,4.19-5.95,4.19Zm-.13-.68c1.23,0,2.59-.76,4.06-2.27,1.91-2.49,2.86-4.8,2.86-6.92-.3,0-1.67,1.29-4.09,3.87-2.23,2.45-3.35,4.07-3.35,4.87,0,.26.17.41.52.45Z" fill="url(#e)" stroke-width="0"/>
    <path d="m100.35,224.45c-.52,0-.97-.34-1.36-1.01-.17-.45-.26-1-.26-1.62,0-2.66.79-5.01,2.37-7.05.39-.5.78-.75,1.17-.75.28,0,.42.15.42.45,0,.28-.17.76-.52,1.43-.97,2.04-1.46,4-1.46,5.88,0,.54.26.81.78.81.95,0,2.33-1.36,4.13-4.09.41-.76.86-1.55,1.33-2.39.48-.83.79-1.42.94-1.77.26-.43.55-.65.88-.65.48,0,.71.22.71.65,0,.3-.12.65-.36,1.04-.8,1.3-1.2,2.68-1.2,4.13,0,1.54.39,2.33,1.17,2.37.97-.13,1.92-.8,2.83-2,.91-1.2,1.36-1.86,1.36-1.97.13-.15.27-.23.42-.23.24,0,.36.1.36.29l-.06.29c-.67.97-1.62,2.05-2.86,3.22-.95.84-1.75,1.27-2.4,1.27-.41,0-.83-.17-1.27-.52-.74-.56-1.1-1.78-1.1-3.64l-.78,1.17c-.78,1.28-1.78,2.48-2.99,3.61-.8.71-1.55,1.07-2.24,1.07Z" fill="url(#f)" stroke-width="0"/>
    <path d="m112.24,223.74c-.09,0-.21-.04-.37-.13-.16-.09-.28-.19-.34-.32-.06-.13-.1-.27-.1-.42,0-1.13.76-3.11,2.27-5.95,1.02-1.99,1.79-2.99,2.31-2.99.13,0,.28.08.44.23.16.15.24.39.24.71,0,.22-.06.51-.19.88l-.84,1.95.55-.45c.82-.82,1.58-1.29,2.27-1.4h.06c.39,0,.71.23.97.68.19.61.29,1.42.29,2.44,0,.71.03,1.28.1,1.71.06.42.33.63.78.63.71,0,2.32-1.14,4.81-3.41.19-.17.38-.26.55-.26.15,0,.25.03.29.1v.07c0,.41-.83,1.32-2.5,2.73-1.06.91-2.11,1.53-3.15,1.85-.26.09-.49.13-.68.13-.69,0-1.2-.43-1.53-1.3-.11-.39-.16-.8-.16-1.23,0-.67.02-1.3.07-1.88l.06-.94c-1.71.93-3.37,2.84-4.97,5.72-.39.58-.8.88-1.23.88Z" fill="url(#g)" stroke-width="0"/>
    <path d="m125.2,221.21c-.84,0-1.26-.45-1.26-1.36,0-.22.03-.41.1-.58.62-1.46,1.69-2.7,3.19-3.72,1.03-.69,1.92-1.04,2.68-1.04.86,0,1.29.32,1.29.95l-.03.07-.29-.05c-.19-.09-.41-.14-.64-.14l-.32.05c.45.15.69.35.71.58,0,.31-.02.57-.06.77-.04.21-.06.54-.06,1,.19,1.03.75,1.55,1.68,1.55.26,0,.55-.03.87-.09,1.53-.4,2.58-1.18,3.16-2.33.13-.14.24-.22.32-.23.19,0,.29.07.29.21l-.03.09c-.32.55-.77,1.1-1.35,1.64-1.08.97-2.26,1.45-3.55,1.45-.45,0-1-.12-1.66-.37-.66-.25-.98-.92-.98-2.03-.32.23-.7.64-1.14,1.23-.44.59-.9,1.13-1.39,1.62s-.98.73-1.5.73Zm.87-1.59c.28-.15.87-.82,1.77-1.98.84-1.06,1.3-1.68,1.39-1.85-.62.32-1.28.9-1.97,1.74-.69.84-1.09,1.53-1.19,2.09Z" fill="url(#h)" stroke-width="0"/>
    <path d="m138.15,241.41h-.16c-.63,0-1.26-.18-1.88-.54-.63-.36-.94-.86-.94-1.51,0-1.1.42-2.16,1.25-3.17.83-1.01,1.64-1.87,2.42-2.58l.1-.13c1.84-1.82,4.28-3.99,7.33-6.51,3.04-2.52,5.7-4.43,7.98-5.73-.78-1.39-1.88-2.41-3.31-3.09-1.43-.67-2.92-1.2-4.48-1.59l-2.53-.68c-1.49-.28-2.9-.73-4.22-1.35-1.32-.62-2.08-1.66-2.27-3.14,0-1.69.76-3.66,2.27-5.91,1.52-2.25,2.89-4.02,4.13-5.3l2.18-2.34c1.15-1.13,2.46-2.37,3.93-3.74,3.79-3.51,6.87-5.26,9.23-5.26.82,0,1.4.23,1.74.7.34.47.54,1.01.6,1.62.06.62.1,1.18.1,1.67,0,1.69-.51,4.15-1.53,7.38-2.36,7.45-4.17,11.39-5.43,11.83l-.1-.1c-.43-.17-.65-.43-.65-.78,0-.19.51-1.32,1.53-3.38l1.49-3.02c.97-1.97,1.87-4.55,2.7-7.73.39-1.58.58-2.96.58-4.13v-.19c0-1.21-.42-1.82-1.27-1.82-2.75,0-6.81,2.85-12.18,8.54-2.01,2.17-3.53,3.94-4.55,5.33l-.42.55c-2.04,2.53-3.05,4.48-3.05,5.85,0,1.17.65,2.04,1.95,2.6.87.37,1.75.65,2.66.84.22.04.44.1.67.16.23.06.49.13.8.19,6.09,1.47,9.53,3.34,10.33,5.59.33-.09.88-.36,1.66-.81,2.51-1.45,4.22-2.18,5.13-2.18.58,0,.88.18.88.55,0,.11-.03.25-.08.42-.05.17-.14.3-.26.37-.12.08-.22.11-.31.11-.13,0-.19-.09-.19-.28s-.1-.28-.29-.28c-.24,0-2.24.99-6.01,2.96.04.24.09.42.13.55.04.13.07.36.07.68,0,1.49-.3,2.8-.89,3.91-.6,1.12-1.25,2.16-1.97,3.14-1.73,2.32-3.38,4.2-4.94,5.65-2.01,2.01-4,3.61-5.95,4.78-1.36.74-2.68,1.16-3.93,1.27Zm-.16-1.27c.58,0,1.2-.11,1.85-.32,3.53-1.36,7.35-4.74,11.47-10.14l.33-.39c.35-.48.67-.99.97-1.53.58-.87,1.03-1.67,1.35-2.42.31-.75.47-1.76.47-3.04-.69.37-1.36.78-2.01,1.23l-.62.42c-3.21,2.21-6.12,4.55-8.74,7.02-4.44,3.94-6.66,6.56-6.66,7.86,0,.87.53,1.3,1.59,1.3Z" fill="url(#i)" stroke-width="0"/>
    <path d="m161.09,223.93c-.84,0-1.27-.64-1.27-1.92,0-.3.03-.57.1-.81.63-2.06,1.7-3.8,3.22-5.23,1.04-.97,1.94-1.46,2.7-1.46.87,0,1.3.44,1.3,1.33l-.03.1-.29-.07c-.19-.13-.41-.19-.65-.19l-.32.06c.45.22.69.49.71.81,0,.43-.02.8-.06,1.09-.04.29-.07.76-.07,1.41.19,1.45.76,2.18,1.69,2.18.26,0,.55-.04.88-.13,1.54-.56,2.6-1.66,3.18-3.28.13-.19.24-.3.33-.32.19,0,.29.1.29.29l-.03.13c-.32.78-.78,1.55-1.36,2.31-1.08,1.36-2.27,2.05-3.57,2.05-.45,0-1.01-.17-1.67-.52-.66-.35-.99-1.3-.99-2.86-.32.32-.71.9-1.15,1.74-.44.83-.91,1.59-1.4,2.27s-.99,1.02-1.51,1.02Zm.88-2.24c.28-.22.88-1.15,1.79-2.79.84-1.49,1.31-2.36,1.4-2.6-.63.45-1.29,1.27-1.98,2.45-.69,1.18-1.09,2.16-1.2,2.94Z" fill="url(#j)" stroke-width="0"/>
    <path d="m174.34,228.65c-2.14,0-3.22-1.7-3.22-5.1,0-1.49.23-3.22.68-5.17v-.16c.06-.22.1-.55.1-1.01-.04-.07-.07-.28-.07-.65,0-.06.06-.15.18-.24.12-.1.19-.19.21-.28.17-.26.26-.49.26-.68l.03-.06c1.45-5.26,3.5-9.92,6.14-13.97,1.52-2.32,2.85-3.48,4-3.48.5,0,.75.28.75.84,0,.41-.21,1.18-.62,2.31-.91,2.38-2.9,6.06-5.98,11.05-1.49,2.36-2.5,3.8-3.02,4.32-.41.43-.71,1.14-.91,2.11-.33,2.27-.49,3.96-.49,5.07,0,2.56.65,3.83,1.95,3.83,1.49,0,3.91-2.77,7.24-8.32.13-.26.36-.64.68-1.14.13-.19.29-.29.49-.29.17,0,.26.07.26.19l-.49,1.04c-.69,1.36-1.47,2.73-2.34,4.09-.04.11-.88,1.28-2.5,3.51-1.23,1.45-2.35,2.18-3.35,2.18Zm-.13-14.85c.95-1.17,1.83-2.43,2.63-3.77.3-.5.61-.98.93-1.45.31-.47.58-.9.8-1.3.22-.4.42-.76.62-1.09,2.14-3.55,3.22-5.97,3.22-7.25-.26.09-.57.32-.94.71-1.04,1.15-2.1,2.68-3.18,4.58-.17.35-.42.79-.75,1.32-.33.53-.61,1.07-.84,1.61-.04.13-.09.25-.13.36-.41.84-.88,1.95-1.4,3.31-.58,1.54-.9,2.52-.94,2.96Z" fill="url(#k)" stroke-width="0"/>
    <path d="m183.28,223.38c-.87,0-1.3-.52-1.3-1.56,0-.67.11-1.32.33-1.95.04-.06.08-.14.1-.23.02-.09.09-.28.19-.58,0-.11-.03-.23-.1-.36-.17-.32-.26-.66-.26-1.01,0-.28.08-.66.23-1.14.43-1.17,1.4-2.09,2.89-2.76.48-.22.93-.32,1.36-.32.3,0,.63.08.97.23.54.28.81.99.81,2.11,0,1.04-.24,2.04-.71,2.99.58,0,1.42-.09,2.52-.26,1.09-.17,1.97-.42,2.62-.75.17-.09.32-.13.45-.13.33,0,.49.13.49.39,0,.02-.03.12-.08.29-.05.17-1.08.5-3.07.97-.65.15-1.62.34-2.92.55-.43.09-.73.22-.88.39-.48.71-1.02,1.41-1.64,2.1s-1.28,1.02-2,1.02Zm2.4-4.65l1.2-.03c.56-1.1.84-2.18.84-3.22-.04-.74-.45-1.1-1.23-1.1-.24,0-.54.06-.89.18-.36.12-.81.47-1.36,1.06-.55.58-.84,1.26-.86,2.01l.78-1.01c.58-.76,1.07-1.14,1.46-1.14.28,0,.42.13.42.39,0,.24-.13.53-.39.88-.13.11-.24.16-.32.16-.37,0-.79.53-1.27,1.59.48.15,1.02.23,1.62.23Zm-1.82,3.09c.26,0,.62-.21,1.07-.62.45-.41.8-.82,1.04-1.23-.78,0-1.54-.11-2.27-.32-.17.48-.26.95-.26,1.43s.14.75.42.75Z" fill="url(#l)" stroke-width="0"/>
    <path d="m192.05,223.74c-.09,0-.21-.04-.37-.13-.16-.09-.28-.19-.34-.32-.07-.13-.1-.27-.1-.42,0-1.13.76-3.11,2.27-5.95,1.02-1.99,1.79-2.99,2.31-2.99.13,0,.28.08.44.23.16.15.24.39.24.71,0,.22-.06.51-.19.88l-.84,1.95.55-.45c.82-.82,1.58-1.29,2.27-1.4h.06c.39,0,.71.23.97.68.19.61.29,1.42.29,2.44,0,.71.03,1.28.1,1.71.07.42.33.63.78.63.71,0,2.32-1.14,4.81-3.41.19-.17.38-.26.55-.26.15,0,.25.03.29.1v.07c0,.41-.83,1.32-2.5,2.73-1.06.91-2.11,1.53-3.15,1.85-.26.09-.49.13-.68.13-.69,0-1.2-.43-1.53-1.3-.11-.39-.16-.8-.16-1.23,0-.67.02-1.3.07-1.88l.06-.94c-1.71.93-3.37,2.84-4.97,5.72-.39.58-.8.88-1.23.88Z" fill="url(#m)" stroke-width="0"/>
  </g>
  <polyline points="41.93 220.69 14.3 220.69 14.3 25.32 238.18 25.32 238.18 220.69 209.84 220.69" fill="none" stroke="#a97c50" stroke-miterlimit="10" stroke-width="3"/>
</svg>